<svg xmlns="http://www.w3.org/2000/svg" width="110" height="110" viewBox="0 0 110 110">
  <g id="bouton-info-hover" transform="translate(-1241 -470)">
    <circle id="Ellipse_7" data-name="Ellipse 7" cx="40" cy="40" r="40" transform="translate(1256 485)" opacity="0.359"/>
    <circle id="Ellipse_2" data-name="Ellipse 2" cx="23.5" cy="23.5" r="23.5" transform="translate(1272 501)" fill="#fff" opacity="0.27"/>
    <path id="Tracé_2" data-name="Tracé 2" d="M47.869-7.284A23.657,23.657,0,0,0,24.216-30.937,23.657,23.657,0,0,0,.562-7.284,23.652,23.652,0,0,0,24.216,16.369,23.652,23.652,0,0,0,47.869-7.284ZM24.85-23.117c5.376,0,11.114,4.2,11.114,9.728,0,7.346-7.934,7.459-7.934,10.173v.127a1.145,1.145,0,0,1-1.145,1.145H21.545A1.145,1.145,0,0,1,20.4-3.088v-.382c0-3.916,2.969-5.481,5.212-6.739,1.924-1.079,3.1-1.812,3.1-3.24,0-1.889-2.41-3.143-4.358-3.143-2.593,0-3.762,1.253-5.465,3.414a1.144,1.144,0,0,1-1.589.2l-3.309-2.509a1.146,1.146,0,0,1-.259-1.551C16.338-20.927,19.653-23.117,24.85-23.117ZM24.216.537a4.387,4.387,0,1,1-4.387,4.387A4.392,4.392,0,0,1,24.216.537Z" transform="translate(1271.784 531.784)" fill="#fff" opacity="0.998"/>
    <g id="Ellipse_3" data-name="Ellipse 3" transform="translate(1260 489)" fill="none" stroke="#fff" stroke-width="2">
      <circle cx="35.5" cy="35.5" r="35.5" stroke="none"/>
      <circle cx="35.5" cy="35.5" r="34.5" fill="none"/>
    </g>
  </g>
</svg>
