<svg xmlns="http://www.w3.org/2000/svg" width="110" height="110" viewBox="0 0 110 110">
  <g id="bouton-info" transform="translate(-1241 -470)">
    <circle id="Ellipse_7" data-name="Ellipse 7" cx="40" cy="40" r="40" transform="translate(1256 485)" opacity="0.359"/>
    <circle id="Ellipse_2" data-name="Ellipse 2" cx="28.5" cy="28.5" r="28.5" transform="translate(1267 496)" fill="#fff" opacity="0.27"/>
    <path id="Tracé_2" data-name="Tracé 2" d="M35.437-13.5A17.44,17.44,0,0,0,18-30.937,17.44,17.44,0,0,0,.562-13.5,17.437,17.437,0,0,0,18,3.937,17.437,17.437,0,0,0,35.437-13.5ZM18.468-25.172c3.963,0,8.194,3.094,8.194,7.172,0,5.415-5.849,5.5-5.849,7.5v.094a.844.844,0,0,1-.844.844H16.031a.844.844,0,0,1-.844-.844v-.281c0-2.887,2.189-4.041,3.843-4.968,1.418-.8,2.287-1.336,2.287-2.389,0-1.393-1.777-2.317-3.213-2.317-1.912,0-2.773.924-4.029,2.517A.843.843,0,0,1,12.9-17.7l-2.44-1.85a.845.845,0,0,1-.191-1.143A9.107,9.107,0,0,1,18.468-25.172ZM18-7.734A3.238,3.238,0,0,1,21.234-4.5,3.238,3.238,0,0,1,18-1.266,3.238,3.238,0,0,1,14.766-4.5,3.238,3.238,0,0,1,18-7.734Z" transform="translate(1278 538)" fill="#fff" opacity="0.998"/>
    <g id="Ellipse_3" data-name="Ellipse 3" transform="translate(1260 489)" fill="none" stroke="#fff" stroke-width="2">
      <circle cx="35.5" cy="35.5" r="35.5" stroke="none"/>
      <circle cx="35.5" cy="35.5" r="34.5" fill="none"/>
    </g>
  </g>
</svg>
